/* XPM */
static char *result[] = {
/* columns rows colors chars-per-pixel */
"64 64 224 2 ",
"   c black",
".  c #0A0100",
"X  c #030308",
"o  c gray6",
"O  c #1C0000",
"+  c #100400",
"@  c #1E1400",
"#  c #090B1A",
"$  c #130E16",
"%  c #250000",
"&  c #290300",
"*  c #270B00",
"=  c #280B08",
"-  c #320D00",
";  c #3A0103",
":  c #251800",
">  c #291C00",
",  c #2B1700",
"<  c #361304",
"1  c #36180C",
"2  c #260A19",
"3  c #3B1D12",
"4  c #331718",
"5  c #320E19",
"6  c #362B00",
"7  c #332600",
"8  c #3E3B01",
"9  c #3E2215",
"0  c #0C0E22",
"q  c #15193C",
"w  c #141533",
"e  c #2E1422",
"r  c #2F2D2E",
"t  c #3B322E",
"y  c #393939",
"u  c #3D292D",
"i  c #450200",
"p  c #490B01",
"a  c #550000",
"s  c #5C0000",
"d  c #510E00",
"f  c #590308",
"g  c #441800",
"h  c #581500",
"j  c #5B1B05",
"k  c #4B1811",
"l  c #5A1813",
"z  c #630807",
"x  c #720000",
"c  c #7C0100",
"v  c #7C0B00",
"b  c #7F0E08",
"n  c #781F00",
"m  c #690C1A",
"M  c #4C2B00",
"N  c #5A2311",
"B  c #523305",
"V  c #7D2200",
"C  c #772205",
"Z  c #623E01",
"A  c #7E2A1A",
"S  c #6A183B",
"D  c #740E22",
"F  c #5B352E",
"G  c #683728",
"H  c #5C470B",
"J  c #784E00",
"K  c #685003",
"L  c #6C6205",
"P  c #5E413E",
"I  c #1B1F4C",
"U  c #251F4C",
"Y  c #1B204D",
"T  c #1E2354",
"R  c #26224D",
"E  c #2C3047",
"W  c #282E5C",
"Q  c #382F4C",
"!  c #242A66",
"~  c #272E6F",
"^  c #2D2A66",
"/  c #2F3173",
"(  c #50294C",
")  c #682A4C",
"_  c #6D324F",
"`  c #432E6F",
"'  c #4B2C66",
"]  c #563666",
"[  c #4D376C",
"{  c #61595C",
"}  c #860B00",
"|  c #8A0E00",
" . c #8F0000",
".. c #9A0200",
"X. c #990A00",
"o. c #8C160A",
"O. c #911F00",
"+. c #981C00",
"@. c #8F151A",
"#. c #93191A",
"$. c #A50D00",
"%. c #A41500",
"&. c #AC1501",
"*. c #AE1F00",
"=. c #A8190B",
"-. c #B31B01",
";. c #AB1B10",
":. c #922100",
">. c #9E2300",
",. c #9C2A00",
"<. c #9F2E08",
"1. c #8A2E0E",
"2. c #A52A00",
"3. c #A82704",
"4. c #BB2300",
"5. c #B92A00",
"6. c #B62708",
"7. c #A82A17",
"8. c #A43810",
"9. c #A93615",
"0. c #B13B11",
"q. c #B73008",
"w. c #891822",
"e. c #9B2826",
"r. c #85312F",
"t. c #AB362B",
"y. c #B33021",
"u. c #C42C00",
"i. c #CD3500",
"p. c #C73803",
"a. c #D03901",
"s. c #CD3B10",
"d. c #C23810",
"f. c #894A00",
"g. c #825B00",
"h. c #9E4100",
"j. c #A95900",
"k. c #B24C03",
"l. c #8B6300",
"z. c #967300",
"x. c #954C33",
"c. c #984B2F",
"v. c #A34E2F",
"b. c #B35232",
"n. c #BB5233",
"m. c #B5482F",
"M. c #AE7219",
"N. c #C64300",
"B. c #D24F00",
"V. c #D14000",
"C. c #D45801",
"Z. c #D74510",
"A. c #D84611",
"S. c #DA4A16",
"D. c #DC4E1B",
"F. c #DA5110",
"G. c #D47700",
"H. c #D96A05",
"J. c #E27112",
"K. c #C54E2E",
"L. c #CD532F",
"P. c #DF5321",
"I. c #D85933",
"U. c #C7543C",
"Y. c #E25C24",
"T. c #E05523",
"R. c #E35D31",
"E. c #E66031",
"W. c #E96537",
"Q. c #E17F31",
"!. c #B25B53",
"~. c #BA6042",
"^. c #CA6848",
"/. c #EE6E43",
"(. c #F07347",
"). c #F67B52",
"_. c #E97853",
"`. c #A48400",
"'. c #B98B00",
"]. c #B99F09",
"[. c #BAB400",
"{. c #BEAE00",
"}. c #9B8F06",
"|. c #D69500",
" X c #C98E00",
".X c #DDA600",
"XX c #D4AF00",
"oX c #D8A900",
"OX c #DDB900",
"+X c #C9AC10",
"@X c #C7B100",
"#X c #F0B213",
"$X c #F08936",
"%X c #F38E39",
"&X c #F6BA21",
"*X c #F8A838",
"=X c #E8A231",
"-X c #E0C000",
";X c #E7CC00",
":X c #E7D200",
">X c #F8D416",
",X c #F7D511",
"<X c #F4CB0E",
"1X c #F1E200",
"2X c #F6EB01",
"3X c #F8F000",
"4X c #F8C621",
"5X c #F89C42",
"6X c #F79344",
"7X c #F88058",
"8X c #F88951",
"9X c #2D3580",
"0X c #303888",
"qX c #373580",
"wX c #6C738C",
"eX c #8E7B87",
"rX c #B87F87",
"tX c #959595",
"yX c #918990",
"uX c #B5968B",
"iX c #B49493",
"pX c #D1978C",
"aX c #E3A18C",
"sX c None",
/* pixels */
"sXsXsXsXsXsXsXsXsXsXsXsXsXsXsXsXsXsXsXsXsXsXsXsXsXsXsXsX7X7XsXsXsXsX).7X7X/.S.a.sXsXsXsXsXsXsXsXsXsXsXsXsXsXsXsXsXsXsXsXsXsXsXsX",
"sXsXsXsXsXsXsXsXsXsXsXsXsXsXsXsXsXsXsXsXsXsXsXsXsXsXsXsX7X8XsXsXsXsX/.(.)./.S.a.sXsXsXsXsXsXsXsXsXsXsXsXsXsXsXsXsXsXsXsXsXsXsXsX",
"sXsXsXsXsXsXsXsXsXsXsXsXsXsXsXsXsXsXsXsXsXsXsXsX7X).sXsX7X5X4X>X5X(.T.D.sXsXsXsXsXsXsXsXsXsXsXsXsXsXsXsXsXsXsXsXsXsXsXsXsXsXsXsX",
"sXsXsXsXsXsXsXsXsXsXsXsXsXsXsXsXsXsXsXsXsXsXsXsX7X).sXsX%X*X4X&X$XW.S.i.sXsXsXsXsXsXsXsXsXsXsXsXsXsXsXsXsXsXsXsXsXsXsXsXsXsXsXsX",
"sXsXsXsXsXsXsXsXsXsXsXsXsXsXsXsXsXsXsXsXsXsXsXsX7X(.D.H.#X4X*X$XY.S.sXsXsXsXsXsXsXsXsXsXsXsXsXsXsXsXsXsXsXsXsXsXsXsXsXsXsXsXsXsX",
"sXsXsXsXsXsXsXsXsXsXsXsXsXsXsXsXsXsXsXsXsXsXsXsX).(.T.J.#X&X$XR.s.4.sXsXsXsXsXsXsXsXsXsXsXsXsXsXsXsXsXsXsXsXsXsXsXsXsXsXsXsXsXsX",
"sXsXsXsXsXsXsXsXsXsXsXsXsXsXsXsXsXsXsXsXsXsXsXsXsXsX(.(.6X$XY.s.4.$.....sXsXsXsXsXsXsXsXsXsXsXsXsXsXsXsXsXsXsXsXsXsXsXsXsXsXsXsX",
"sXsXsXsXsXsXsXsXsXsXsXsXsXsXsXsXsXsXsXsXsXsXsXsXsXsX/././.R.s.4.$. .....sXsXsXsXsXsXsXsXsXsXsXsXsXsXsXsXsXsXsXsXsXsXsXsXsXsXsXsX",
"sXsXsXsXsXsXsXsXsXsXsXsXsXsXsXsXsXsXsXsXsXsXsXsXsXsXS.S.S.s.-.$.sXsXsXsXsXsXsXsXsXsXsXsXsXsXsXsXsXsXsXsXsXsXsXsXsXsXsXsXsXsXsXsX",
"sXsXsXsXsXsXsXsXsXsXsXsXsXsXsXsXsXsXsXsXsXsXsXsXsXsX:.2.q.u.$...sXsXsXsXsXsXsXsXsXsXsXsXsXsXsXsXsXsXsXsXsXsXsXsXsXsXsXsXsXsXsXsX",
"sXsXsXsXsXsXsXsXsXsXsXsXsXsX    sXsXsXsXsXsXsXsX  + - < sXsXsXsXsXsXsXsXsXsXsXsXsXsXsXsX7X7XsXsXsXsXsXsXsXsXsXsXsXsXsXsXsXsXsXsX",
"sXsXsXsXsXsXsXsXsXsXsXsXsXsX3 3 sXsXsXsXsXsXsXsX- < - < sXsXsXsXsXsXsXsXsXsXsXsXsXsXsXsX/./.sXsXsXsXsXsXsXsXsXsXsXsXsXsXsXsXsXsX",
"sXsXsXsXsXsXsXsXsXsXsXsX  3 x.x.3   sXsXsXsX  < V ,.,.V -   sXsXsXsXsXsXsXsXsXsXsXsX7X/.T.S.sXsXsXsXsXsXsXsXsXsXsXsXsXsXsXsXsXsX",
"sXsXsXsXsXsXsXsXsXsXsXsX  3 b.b.3   sXsXsXsX- j 0.A.a.2.d % sXsXsXsXsXsXsXsXsXsXsXsX5X$XY.S.sXsXsXsXsXsXsXsXsXsXsXsXsXsXsXsXsXsX",
"sXsXsXsXsXsXsXsXsXsXsXsX  < 8.8.<   sXsX  - V 0.I.E.A.5.| s %   sXsXsXsXsXsX7X7XsXsX>X&X$X/.sXsXsXsXsXsXsXsXsXsXsXsXsXsXsXsXsXsX",
"sXsXsXsXsXsXsXsXsXsXsXsX- h >.:.-   sXsX  - ,.A.E.W.T.s.-.v &   sXsXsXsXsXsX/./.sXsX3X>X5X7XsXsXsXsXsXsXsXsXsXsXsXsXsXsXsXsXsXsX",
"sXsXsXsXsXsXsXsXsXsX  - C 3.$.c &   sXsX  - ,.a.Z.P.W.R.s.O.-   sXsXsXsX)./.Y.S.sXsX3X>X5X7XsXsX7X7XsXsXsXsXsXsXsXsXsXsXsXsXsXsX",
"sXsXsXsXsXsXsXsXsXsX  - +.3.@.m p - sXsX% d 2.a.a.S././.S.,.-   sXsXsXsX5X$XF.a.sXsX2X>X5X7XsXsX7X7XsXsXsXsXsXsXsXsXsXsXsXsXsXsX",
"sXsXsXsXsXsXsXsXsXsX  % v @.) ) r.V - % s | 5.a.a.S././.S.,.-   sXsXsXsX>X#XH.Z./.*X>X>X5X7XsXsX7X7XsXsXsXsXsXsXsXsXsXsXsXsXsXsX",
"sXsXsXsXsXsXsXsXsXsX% ; m S / ] e.:.- & v -.u.a.a.S././.S.,.-   sXsXsXsX2X<XJ.Y.$X=X+X+XQ./.sXsX/./.sXsXsXsXsXsXsXsXsXsXsXsXsXsX",
"sXsXsXsXsXsXsXsX  % f m ( ` qX' w.v & - :.u.i.a.a.S././.S.,.-   sXsXsXsX3X,X$X$X&X+XL Z k.P././.T.S.sXsXsXsXsXsXsXsXsXsXsXsXsXsX",
"sXsXsXsXsXsXsXsX  = m S ` 0X0X' D x & - ,.a.a.a.A.P.W.E.A.2.d % sXsXsXsX,X4X*X=X+X}.H N 1.0.I.W.S.a.sXsXsXsXsXsXsXsXsXsXsXsXsXsX",
"sXsXsXsXsXsXsXsX. $ R ` qX0X0X' w.x & - ,.a.a.A.E.W.P.A.a.5.| s %   sXsX5X*X4X+XL H x.x.N j 0.S.sXsXsXsXsXsXsXsXsXsXsXsXsXsXsXsX",
"sXsXsXsXsXsXsXsX# q / 0X0X0X9X` m s ; d 2.a.a.S././.S.i.u.4.&.v &   sXsX/.$X>X[.8 3 b.U.l p n ,.sXsXsXsXsXsXsXsXsXsXsXsXsXsXsXsX",
"sXsXsXsXsXsXX 0 T ~ / 0X0X0X0X^ e ; s } 5.i.a.S././.S.u.&.&.4.O.-   sXsXS.J.<X[.8 < 9.q.o.z p - sXsXsXsXsXsXsXsXsXsXsXsXsXsXsXsX",
"sXsXsXsXsXsXy Q W ~ 0X0X0X0X0X! 0 % x $.u.a.a.A.E.R.s.-.$.$.u.,.-   sXsXa.H.#X].8 - O.4.-.| l 4 sXsXsXsXsXsXsXsXsXsXsXsXsXsXsXsX",
"sXsXsXsXX y tXtXE q ~ 0X0X0X0X! 0 % x %.u.a.a.a.A.s.-.$...$.u.,.-   sXsXsXsX%X^.9 * v &.4.d.n.x.3   sXsXsXsXsXsXsXsXsXsXsXsXsXsX",
"sXsXsXsXQ { iXiX{ E W ~ 9X0X0X! 0 & v -.u.a.a.a.a.u.$. .c | 5.,.-   sXsXsXsX~.c.k i } =.7.m.I.b.G 3 sXsXsXsXsXsXsXsXsXsXsXsXsXsX",
"sXsX  y tXiX!.!.yXwXE q ~ 0X0X! 0 - :.u.i.a.i.i.a.u.$.c i d 2.,.-   sXsXsXsX9 k z } *.t._ _ e.y.n.x.4   sXsXsXsXsXsXsXsXsXsXsXsX",
"sXsX  y tXiXt.t.rXyXr 0 ! 0X0X! 0 - 2.a.i.i.u.u.u.-.} a O - O.O.-   sXsXsXsX, h | ;.7.r.[ ` S w.U.m.N - sXsXsXsXsXsXsXsXsXsXsXsX",
"sXsXsXsXy F 8.d.K.c.1 0 ! 0X0X! 0 - ,.i.a.u.-.$.$.} i O . & v v &   sXsX  - V 2.u.7._ [ qXqX` ) e.7.3.V -   sXsXsXsXsXsXsXsXsXsX",
"sXsXsXsX  < V 2.5.>.d 4 U ! ! U 2 d 2.a.a.u.-.$...x &     % x x %   sXsX- h >.5.3.r.] 0X0X0X0X` S @.3.>.h - sXsXsXsXsXsXsXsXsXsX",
"sXsXsXsXsXsX- d | %.2.C 4 0 0 2 f | 5.a.a.i.u.-.$.x %     % x x %     - V >.%.| k e ^ 0X0X0X0X0X[ ) @.%.3.n -   sXsXsXsXsXsXsXsX",
"sXsXsXsXsXsX  O a } 5.2.h * . & v -.i.a.A.A.a.u.$.x %     % s a O . * h >.*.} z k Q W ! ! ~ / 0X0X/ S #.q.,.-   sXsXsXsXsXsXsXsX",
"sXsXsXsXsXsX  . O d 2.p.2.V * - O.u.i.A.E.E.Z.u.$.x %   sXsX% O . * n +.%.} i u wXwXE 0 0 q / 0X0X/ ` _ 0.,.-   sXsXsXsXsXsXsXsX",
"sXsXsXsXsXsX  X # 4 C 2.5.+.d d 2.i.a.S././.S.u.-.| i % sXsX% & - j r.<.b z k P yXeXr o r Q W ~ 0X0X0X] e.>.h - sXsXsXsXsXsXsXsX",
"sXsXsXsXsXsX  # Y R 4 d | X.c | 5.a.a.S././.S.i.u.*.} f % % s v :.1._ ( 5 k x.~.U.c.1 r yXyXQ q ~ 0X0X' w.%.3.n -   sXsXsXsXsXsX",
"sXsXsXsXsXsX  0 ! ! 0 O a c  .$.u.a.a.S./.(.T.S.a.u.$.x % O a v :.A ( U 2 l n.R.s.>.h F uXuXt # I ~ 9X` S #.q.,.-   sXsXsXsXsXsX",
"sXsXsXsXsXsX  0 ! ! 0 . O i c $.u.a.i.S./.).(.R.Z.u.$.x % . O & = = $ 2 f o.d.s.-.%.>.7.t.G 2 X # q ~ qX` _ 9.>.-   sXsXsXsXsXsX",
"sXsXsXsXsXsX  # I T 0     & v -.u.a.a.A.R.(.)./.S.u.$.} d < 3 9 9 3 - p } $.u.u.-.7.L.K.o.f 2 0 0 w R ~ 9X] e.3.h - sXsXsXsXsXsX",
"sXsXsXsXsXsX  X # # sXsX  - :.i.i.a.a.a.A.Y.(./.S.u.$.X.+.9.b.~.~.b.8.>.X.$.u.i.u.L.aXuXF 2 R ! ! T w q ~ ' w.%.2.V -   sXsXsXsX",
"sXsXsXsXsXsX        sXsX% d 2.V.B.C.C.B.a.A.E.E.Z.u.$.$.u.A.E././.R.s.*.} v O.,.,.v.uXyXr 0 ! 0X0X! 0 # I Q S #.q.,.-   sXsXsXsX",
"sXsXsXsXsXsX    sXsX  % s | 5.B.G.|.|.G.B.a.A.A.a.u.$.$.u.a.A.S.S.s.-.} i & - - < 1 t r o 0 ! 0X0X! # X # w Q ) 9.,.-   sXsXsXsX",
"sXsXsXsXsXsX    sXsX  & v 3.N.H..XOXOX|.G.B.a.a.i.u.-.&.4.5.2.,.,.O.v f 2 # X X # 0 0 #   # I ~ 9X~ I # X 0 ! ] t.>.<   sXsXsXsX",
"sXsXsXsXsXsXsXsX      - :.N.G..X:X:XOX.X|.G.B.i.a.i.u.u.&.| d - - = & 2 R I # # Y ! ! I # X # q ~ 9X~ I # # ! ] t.,.-   sXsXsXsX",
"sXsXsXsXsXsXsXsX- * . < h.H..X;X2X1X:XOXOX|.C.a.a.a.a.u.-.} i O . X # q ~ ! 0 0 ! / ~ I #     0 ! 0X0X~ I w T ( 9.,.<   sXsXsXsX",
"sXsXsXsXsXsX  - V n - 6 z..X;X1X2X2X1X:XOX|.C.i.a.a.a.i.u.3.} a O # Y ~ 9X! 0 0 ! ~ q # X     0 ! 0X0X9X~ R w 4 <.,.-   sXsXsXsX",
"sXsXsXsXsXsX  < 8.9.< 6 `.OX1X3X3X3X3X1X;X.XG.B.a.i.u.u.u.-.$.x % 0 ! 0X0X! 0 # Y R 2 O .     # I ! ! ~ 9X! 0 - O.O.-   sXsXsXsX",
"sXsXsXsXsXsX  3 b.b.1 6 `.-X1X2X3X3X3X2X1X:XoXG.B.u.-.$.$.$...x % 0 ! 0X0X! 0 X # 2 f a O     X # 0 0 q ~ ! 0 & v v &   sXsXsXsX",
"sXsXsXsXsXsX  3 b.b.3 6 `.-X1X3X3X3X3X3X2X1X-X Xj.>.%.$.$.$...c i 2 U ~ 9X! 0 . O i } v &       .     # T I # % x x %   sXsXsXsX",
"sXsXsXsXsXsX  < 9.8.< 6 `.-X1X2X3X3X3X3X3X1X-X`.Z h 3.4.u.-.$. .c f 2 q ~ ! 0 O s } 3.+.-   sXsXsXsXsXsX0 # X % x x %   sXsXsXsX",
"sXsXsXsXsXsX% d +.:.- 7 z.XX:X1X2X3X3X3X3X:X].l.M j 0.S.S.s.-.$...x % # I U 2 i } -.u.,.-   sXsXsXsXsXsX      % s a O   sXsXsXsX",
"sXsXsXsX  % s c X.v * 7 g.'.XX;X1X3X3X3X3X@XL M :.0.I././.R.s.-.$.x % X # 2 f } 3.u.i.,.-   sXsXsXsXsXsXsXsXsXsX% O .   sXsXsXsX",
"sXsXsXsXy F o.$.$.} i < Z l.'.XX:X1X2X3X3X[.8 < 8.P.(.7X7X/.S.u.$.c i % % i | -.u.a.N.,.<   sXsXsXsXsXsXsXsXsXsX        sXsXsXsX",
"sXsX  y tXuXn.u.u.*.} s < M l.'.XX:X1X3X3X[.8 9 b.(.7X7X7X/.S.u.$. .c x x } 3.u.i.p.k.f.>   sXsXsXsXsXsXsXsXsXsXsXsX    sXsXsXsX",
"sXsX  y tXuXv.0.L.n.o.a O @ Z l.'.XX:X1X1X[.H N x.^._.).(.R.s.3.$. .....$.-.u.a.N.k.f.H :   sXsXsXsXsXsXsXsXsXsXsXsX    sXsXsXsX",
"sXsXsXsXy t 3 G pXuXF O . . @ B l.'.oX-X-X@Xl.Z N G ^.(.T.s.-.$..... .$.4.i.i.N.k.f.M : sXsXsXsXsXsXsXsXsXsXsXsXsXsXsXsXsXsXsXsX",
"sXsXsXsX      y tXtXy         : H g.z.`.`.z.g.K M l m.I.s.4.X. .c } | 2.q.N.N.k.f.Z :   sXsXsXsXsXsXsXsXsXsXsXsXsXsXsXsXsXsXsXsX",
"sXsXsXsXsXsXsXsXy y sXsXsXsXsXsX: > 7 6 6 7 > g V 3.;.;.=.$...x i g V j.j.j.j.f.M : sXsXsXsXsXsXsXsXsXsXsXsXsXsXsXsXsXsXsXsXsXsX",
"sXsXsXsXsXsXsXsX    sXsXsXsXsXsX              3 v.U.;.;.t.t.=.v % @ H J J J J Z :   sXsXsXsXsXsXsXsXsXsXsXsXsXsXsXsXsXsXsXsXsXsX",
"sXsXsXsXsXsXsXsXsXsXsXsXsXsXsXsXsXsXsXsXsXsX  t uXaXL.K.pXpXL.O.- . @ > > > : : sXsXsXsXsXsXsXsXsXsXsXsXsXsXsXsXsXsXsXsXsXsXsXsX",
"sXsXsXsXsXsXsXsXsXsXsXsXsXsXsXsXsXsXsXsXsXsX  y tXuXv.v.uXuXv.O.-               sXsXsXsXsXsXsXsXsXsXsXsXsXsXsXsXsXsXsXsXsXsXsXsX",
"sXsXsXsXsXsXsXsXsXsXsXsXsXsXsXsXsXsXsXsXsXsXsXsXy t 1 1 t t 1 - sXsXsXsXsXsXsXsXsXsXsXsXsXsXsXsXsXsXsXsXsXsXsXsXsXsXsXsXsXsXsXsX",
"sXsXsXsXsXsXsXsXsXsXsXsXsXsXsXsXsXsXsXsXsXsXsXsX                sXsXsXsXsXsXsXsXsXsXsXsXsXsXsXsXsXsXsXsXsXsXsXsXsXsXsXsXsXsXsXsX"
};
