/* XPM */
static char *result[] = {
/* columns rows colors chars-per-pixel */
"64 64 185 2 ",
"   c #010101",
".  c #090402",
"X  c #06070A",
"o  c #130500",
"O  c #170C08",
"+  c #230200",
"@  c #260A00",
"#  c #2B0C00",
"$  c #330E00",
"%  c #380600",
"&  c #2D1D00",
"*  c #3F1101",
"=  c #352800",
"-  c #3E2118",
";  c #121624",
":  c #2D2D2D",
">  c #372F30",
",  c #410100",
"<  c #4B0A02",
"1  c #4B0700",
"2  c #5A0200",
"3  c #451301",
"4  c #4B1603",
"5  c #451B0C",
"6  c #541500",
"7  c #5B1B03",
"8  c #581700",
"9  c #670200",
"0  c #700D00",
"q  c #631B00",
"w  c #6B1D00",
"e  c #631605",
"r  c #761D00",
"t  c #7E1F00",
"y  c #5F3D00",
"u  c #552B1D",
"i  c #5D2515",
"p  c #7D2201",
"a  c #7B250B",
"s  c #703500",
"d  c #762B10",
"f  c #7A371F",
"g  c #6B260D",
"h  c #58372A",
"j  c #653424",
"k  c #773E2A",
"l  c #7F493F",
"z  c #212943",
"x  c #283151",
"c  c #36436D",
"v  c #464646",
"b  c #554F4D",
"n  c #6A4E44",
"m  c #6F4D55",
"M  c #656565",
"N  c gray42",
"B  c gray49",
"V  c #840603",
"C  c #9A0900",
"Z  c #891300",
"A  c #9F1101",
"S  c #9D1E00",
"D  c #911E12",
"F  c #A00A07",
"G  c #AF1700",
"H  c #A71508",
"J  c #B31F0A",
"K  c #872705",
"L  c #962902",
"P  c #9D2A00",
"I  c #972700",
"U  c #893308",
"Y  c #9C320C",
"T  c #89381C",
"R  c #9B3714",
"E  c #A32400",
"W  c #AC2E00",
"Q  c #B82605",
"!  c #B43100",
"~  c #A12C1A",
"^  c #B22318",
"/  c #B82815",
"(  c #B83F13",
")  c #A93106",
"_  c #8F3F24",
"`  c #BE3323",
"'  c #CD3902",
"]  c #C83805",
"[  c #D03800",
"{  c #D33F08",
"}  c #D03F16",
"|  c #AF4809",
" . c #AF5A00",
".. c #B15D00",
"X. c #B9441B",
"o. c #9C6500",
"O. c #AC6700",
"+. c #A56C00",
"@. c #AF7B00",
"#. c #B17E00",
"$. c #86432C",
"%. c #91482F",
"&. c #934C34",
"*. c #965038",
"=. c #A94B2C",
"-. c #AC593D",
";. c #A85437",
":. c #B05739",
">. c #C84207",
",. c #D44508",
"<. c #C45600",
"1. c #D85B00",
"2. c #D54612",
"3. c #D54B19",
"4. c #DD511E",
"5. c #D25F12",
"6. c #CC4716",
"7. c #D76903",
"8. c #C67D00",
"9. c #E37119",
"0. c #DE5424",
"q. c #D85729",
"w. c #CF4A33",
"e. c #D55836",
"r. c #E05624",
"t. c #E45C2C",
"y. c #E65F30",
"u. c #C6613F",
"i. c #DB6339",
"p. c #E36133",
"a. c #E96436",
"s. c #EA673A",
"d. c #EB693D",
"f. c #8B5857",
"g. c #81645A",
"h. c #996973",
"j. c #A17F73",
"k. c #C26445",
"l. c #D56B47",
"z. c #DB714E",
"x. c #EC6D44",
"c. c #E46545",
"v. c #EF7045",
"b. c #E0734E",
"n. c #F2764C",
"m. c #F2754A",
"M. c #F57C54",
"N. c #B88B00",
"B. c #C88500",
"V. c #C59700",
"C. c #C99C00",
"Z. c #D5AC00",
"A. c #DAB400",
"S. c #DABB00",
"D. c #E7A200",
"F. c #EF8930",
"G. c #F8A63A",
"H. c #F8BB2A",
"J. c #E3C400",
"K. c #E5C900",
"L. c #E8D100",
"P. c #F7CC19",
"I. c #F8EE04",
"U. c #F0E200",
"Y. c #F8C524",
"T. c #9D877F",
"R. c #B38778",
"E. c #F89548",
"W. c #F89746",
"Q. c #F88256",
"!. c #F88058",
"~. c #F8A243",
"^. c gray51",
"/. c #AA8B80",
"(. c #B09186",
"). c #BB9C91",
"_. c #CF9582",
"`. c #C39E92",
"'. c #DCA592",
"]. c #F8B39C",
"[. c #DDBCB0",
"{. c #F8DD92",
"}. c #F8C68E",
"|. c #E9C8BC",
" X c None",
/* pixels */
" X X X X X X X X X X X X X X X X X X X X X X X X X X X X X X X X X X X X X X X X X X X X X X X X X X X X X X X X X X X X X X X X",
" X X X X X X X X X X X X X X X X X X X X X X X X X X X X X X X X X X X X X X X X X X X X X X X X X X X X X X X X X X X X X X X X",
" X X X X X X X X X X X X X X X X X X X X X X X X X X X X X X X X X X X X X X X X X X X X X X X X X X X X X X X X X X X X X X X X",
" X X X X X X X X X X X X X X X X X X X X X X X X X X X X X X X X X X X X X X X X X X X X X X X X X X X X X X X X X X X X X X X X",
" X X X X X X X X X X X X X X X X X X X X X X X X X X X X X X X X X X X X X X X X X X X X X X X X X X X X X X X X X X X X X X X X",
" X X X X X X X X X X X X X X X X X X X X X X X X X X X X X X X X X X X X X X X X X X X X X X X X X X X X X X X X X X X X X X X X",
" X X X X X X X X X X X X X X X X X X X X X X X X X X X X X X X X X X X X X X X X X X X X X X X X X X X X X X X X X X X X X X X X",
" X X X X X X X X X X X X X X X X X X X X X X X X X X X X X X X X X X X X X X X X X X X X X X X X X X X X X X X X X X X X X X X X",
" X X X X X X X X X X X X X X X X X X X X X X X X X X X X X X X X X X X X X X X X X X X X X X X X X X X X X X X X X X X X X X X X",
" X X X X X X X X X X X X X X X X X X X X X X X X X X X X X X X X X X X X X X X X X X X X X X X X X X X X X X X X X X X X X X X X",
" X X X X X X X X X X X X X X X X X X X X X X X X X X X X X X X X X X X X X X X X X X X X X X X X X X X X X X X X X X X X X X X X",
" X X X X X X X X X X X X X X X X X X X X X X X X X X X X X X X X X X X X X X X X X X X X X X X X X X X X X X X X X X X X X X X X",
" X X X X X X X X X X X X X X X X X X X X X X X X X X X X X X X X X X X X X X X X X X X X X X X X X X X X X X X X X X X X X X X X",
" X X X X X X X X X X X X X X X X X X X X X X X X X X X X X X X X X X X X X X X X X X X X X X X X X X X X X X X X X X X X X X X X",
" X X X X X X X X X X X X X X X X X X X X X X X X X X X X X X X X X X X X X X X X X X X X X X X X X X X X X X X X X X X X X X X X",
" X X X X X X X X X X X X X X X X X X X X X X X X X X X X X X X X X X X X X X X X X X X X X X X X X X X X X X X X X X X X X X X X",
" X X X X X X X X X X X X X X X X X X X X X X X[ [  X X X X X X X X X X X X X X X X X X X X X X X X X X X X X X X X X X X X X X X",
" X X X X X X X X X X X X X X X X X X X X X X[  X X X X X X X X X X X X X X X X X X X X X X X X X X X X X X X X X X X X X X X X X",
" X X X X X X X X X X X X X X X X X X X X X X[  X X X X X X X X X X X X X X X X X X X X X X X X X X X X X X X X X X X X X X X X X",
" X X X X X X X X X X X X X X X X X X X X[ [ [ [ [  X X X X               X X X X X X X X X X X X X X X X X X X X X X X X X X X X",
" X X X X X X X X X X X X X X X X X X X[ [ 1.D.1.[  X X X. w T *.&.&.$.K 3  X X X X X X X X X X X X X X X X X X X X X X X X X X X",
" X X X X X X X X X X X X X X X X X X X[ 2.9.P.7.[  X X# 4 ( a.!.!.!.m.4.a $  X X X X X X X X X X X X X X X X X X X X X X X X X X",
" X X X X X X X X X X X X X X X X X X X[ a.M.Q.r.[  X  8 ' x.M.!.!.!.M.M.0.I    X X X X X X X X X X X X X X X X X X X X X X X X X",
" X X X X X X X X X X X X X X X X X X Xs.m.W.Y.F.d. X  i d.M.!.!.!.!.!.!.v.=..  X X X X X X X X X X X X X X X X X X X X X X X X X",
" X X X X X X X X X X X X X X X X X X X!.E.H.I.G.l. X3 $.!.!.!.!.!.!.!.!.!.k.4 #  X X X X X X X X X X X X X X X X X X X X X X X X",
" X X X X X X X X X X X X X X X X X!.!.!.Y.I.I.G.*.. L r.M.M.!.!.!.!.!.!.!.v.' 3    X X X X X X X X X X X X X X X X X X X X X X X",
" X X X X X X X X X X X X X X X X X X X!.}.{.~.E.u X /.R.u z.!.!.!.!.!.!.].`.3 o    X X X X X X X X X X X X X X X X X X X X X X X",
" X X X X X X X X X X X X X X X X X X X&._.'.*. X XX N b O k.!.!.!.!.!.!.R.N X      X X X X X X X X X X X X X X X X X X X X X X X",
" X X X X X X X X X X X X X X X X X X X  %.:..  X X  X X O k.!.!.!.!.!.!.j   X X    X X X X X X X X X X X X X X X X X X X X X X X",
" X X X X X X X X X X X X X X X X X X X  K Y .  X X  x z O k.!.M.!.!.!.!.j ; c ;    X X X X X X X X X X X X X X X X X X X X X X X",
" X X X X X X X X X X X X X X X X X X X  p L    X XX m f.l z.Q.Q.!.!.!.!.-.$.h.>    X X X X X X X X X X X X X X X X X X X X X X X",
" X X X X X X X X X X X X X X X X X X X  p P @  X X. :.n.M.M.M.Q.!.!.!.!.!.M.v.u    X X X X X X X X X X X X X X X X X X X X X X X",
" X X X X X X X X X X X X X X X X X X X  t ] ! 3     Y t.!.M.!.M.!.!.!.!.!.m.2.4      X X X X X X X X X X X X X X X X X X X X X X",
" X X X X X X X X X X X X X X X X X X X X3 q q w d _ g R y.M.!.M.!.!.!.!.x.X.w f f w $  X X X X X X X X X X X X X X X X X X X X X",
" X X X X X X X X X X X X X X X X X X X X  . # R q.x.i 6 ) e.x.v.m.v.x.c.( t + =.a.2.7 @  X X X X X X X X X X X X X X X X X X X X",
" X X X X X X X X X X X X X X X X X X X X  $ ! a.s.{ A 2 @ V Q { { { ] F < % V Q 0.n.6.r      X X X X X X X X X X X X X X X X X X",
" X X X X X X X X X X X X X X X X X X X X  5 i.t.( 8 S H r 1 1 6 6 6 6 % e K Q r U r.y._      X X X X X X X X X X X X X X X X X X",
" X X X X X X X X X X X X X X X X X X X X X5 -.R 7   L ,.<.y = & & & & & U ' [ < $ L =.k      X X X X X X X X X X X X X X X X X X",
" X X X X X X X X X X X X X X X X X X X X X X.       L 7.Z.Z.N.o.o.o.o.o.+. .[ 3     . .  X X X X X X X X X X X X X X X X X X X X",
" X X X X X X X X X X X X X X X X X X X X X X X  + 9 W 7.A.L.S.V.V.V.V.V.@. .[ Z ,      X X X X X X X X X X X X X X X X X X X X X",
" X X X X X X X X X X X X X X X X X X X X X X X  % G } 5.8.J.L.J.A.A.Z.V.O.| 4.Q 0    X X X X X X X X X X X X X X X X X X X X X X",
" X X X X X X X X X X X X X X X X X X X X X X X  3 ] x.w.A B.K.U.A.Z.C.+.P ^ M.3.K    X X X X X X X X X X X X X X X X X X X X X X",
" X X X X X X X X X X X X X X X X X X X X X X X X@ * D H C E ..N.#.@.O.P C F ^ e $  X X X X X X X X X X X X X X X X X X X X X X X",
" X X X X X X X X X X X X X X X X X X X X X X X X$ 7 ~ / G G K y y y s G G ^ ` a 3  X X X X X X X X X X X X X X X X X X X X X X X",
" X X X X X X X X X X X X X X X X X X X X X X X  5 3.i.i.6.] w       # W >.q.b.q.U    X X X X X X X X X X X X X X X X X X X X X X",
" X X X X X X X X X X X X X X X X X X X X X X X  b |.n g.[.h @  X X X X# j.).- (./.   X X X X X X X X X X X X X X X X X X X X X X",
" X X X X X X X X X X X X X X X X X X X X X X X Xv ^.> v B :  X X X X X XM N X M M    X X X X X X X X X X X X X X X X X X X X X X",
" X X X X X X X X X X X X X X X X X X X X X X X X X   X X   X X X X X X X     X     X X X X X X X X X X X X X X X X X X X X X X X",
" X X X X X X X X X X X X X X X X X X X X X X X X X X X X X X X X X X X X X X X X X X X X X X X X X X X X X X X X X X X X X X X X",
" X X X X X X X X X X X X X X X X X X X X X X X X X X X X X X X X X X X X X X X X X X X X X X X X X X X X X X X X X X X X X X X X",
" X X X X X X X X X X X X X X X X X X X X X X X X X X X X X X X X X X X X X X X X X X X X X X X X X X X X X X X X X X X X X X X X",
" X X X X X X X X X X X X X X X X X X X X X X X X X X X X X X X X X X X X X X X X X X X X X X X X X X X X X X X X X X X X X X X X",
" X X X X X X X X X X X X X X X X X X X X X X X X X X X X X X X X X X X X X X X X X X X X X X X X X X X X X X X X X X X X X X X X",
" X X X X X X X X X X X X X X X X X X X X X X X X X X X X X X X X X X X X X X X X X X X X X X X X X X X X X X X X X X X X X X X X",
" X X X X X X X X X X X X X X X X X X X X X X X X X X X X X X X X X X X X X X X X X X X X X X X X X X X X X X X X X X X X X X X X",
" X X X X X X X X X X X X X X X X X X X X X X X X X X X X X X X X X X X X X X X X X X X X X X X X X X X X X X X X X X X X X X X X",
" X X X X X X X X X X X X X X X X X X X X X X X X X X X X X X X X X X X X X X X X X X X X X X X X X X X X X X X X X X X X X X X X",
" X X X X X X X X X X X X X X X X X X X X X X X X X X X X X X X X X X X X X X X X X X X X X X X X X X X X X X X X X X X X X X X X",
" X X X X X X X X X X X X X X X X X X X X X X X X X X X X X X X X X X X X X X X X X X X X X X X X X X X X X X X X X X X X X X X X",
" X X X X X X X X X X X X X X X X X X X X X X X X X X X X X X X X X X X X X X X X X X X X X X X X X X X X X X X X X X X X X X X X",
" X X X X X X X X X X X X X X X X X X X X X X X X X X X X X X X X X X X X X X X X X X X X X X X X X X X X X X X X X X X X X X X X",
" X X X X X X X X X X X X X X X X X X X X X X X X X X X X X X X X X X X X X X X X X X X X X X X X X X X X X X X X X X X X X X X X",
" X X X X X X X X X X X X X X X X X X X X X X X X X X X X X X X X X X X X X X X X X X X X X X X X X X X X X X X X X X X X X X X X",
" X X X X X X X X X X X X X X X X X X X X X X X X X X X X X X X X X X X X X X X X X X X X X X X X X X X X X X X X X X X X X X X X"
};
