/* XPM */
static char *result[] = {
/* columns rows colors chars-per-pixel */
"64 64 12 1 ",
"  c gray19",
". c #406828",
"X c #E85840",
"o c #509038",
"O c #78B840",
"+ c #D8A838",
"@ c #A0E068",
"# c #E8D840",
"$ c #6090D0",
"% c #B8E898",
"& c #D0F8C0",
"* c None",
/* pixels */
"****************************************************************",
"****************************************************************",
"****************************************************************",
"****************************************************************",
"****************************************************************",
"****************************************************************",
"****************************************************************",
"****************************************************************",
"****************************************************************",
"****************************************************************",
"****************************************************************",
"****************************************************************",
"****************************************************************",
"****************************************************************",
"****************************************************************",
"****************************************************************",
"****************************************************************",
"****************************************************************",
"****************************************************************",
"****************************************************************",
"****************************************************************",
"****************************************************************",
"***************************************  ***********************",
"************************************** O ***********************",
"************************************* @O ***********************",
"**********************************   @O@o **********************",
"******************************    @@@@O@o **********************",
"****************************  @@@%%%%O@@o **********************",
"*************************** @@@%%%%%O@&@o **********************",
"************************** O@%%%%%OO&&&Oo **********************",
"************************* oO@@%%%O@&&&&oO **********************",
"************************* Xo@%%%O&&&&&@oO **********************",
"************************* Xoo%OO&&&&&@oOO **********************",
"************************. XXooO@&&&&@oOOo **********************",
"*********************** O.XX.###O@@ooOOO ***********************",
"********************** $$$..###+ooooOOOo ***********************",
"*********************** .$+.o+..ooOOOOO ************************",
"************************ .#+Oo.oOOOOOOo ************************",
"************************.## @@O.oOOOOo *************************",
"************************ #+  @O.oooo  **************************",
"************************ + ** .     ****************************",
"************************  **************************************",
"****************************************************************",
"****************************************************************",
"****************************************************************",
"****************************************************************",
"****************************************************************",
"****************************************************************",
"****************************************************************",
"****************************************************************",
"****************************************************************",
"****************************************************************",
"****************************************************************",
"****************************************************************",
"****************************************************************",
"****************************************************************",
"****************************************************************",
"****************************************************************",
"****************************************************************",
"****************************************************************",
"****************************************************************",
"****************************************************************",
"****************************************************************",
"****************************************************************"
};
