/* XPM */
static char *result[] = {
/* columns rows colors chars-per-pixel */
"64 64 86 1 ",
"  c #D1AD65",
". c #D4AF69",
"X c #D7B064",
"o c #DAB266",
"O c #D6B26C",
"+ c #DCB66D",
"@ c #DEB96F",
"# c #D6B572",
"$ c #DAB671",
"% c #DEBA73",
"& c #D5B778",
"* c #DDBC7B",
"= c #E3B96F",
"- c #E3BD74",
"; c #E9BF74",
": c #E2BE7A",
"> c #E8BF78",
", c #DFC07F",
"< c #E6C077",
"1 c #EAC276",
"2 c #E5C17B",
"3 c #EAC37B",
"4 c #EFC87F",
"5 c #DCBE82",
"6 c #DFC185",
"7 c #DEC28B",
"8 c #DFC592",
"9 c #E4C383",
"0 c #EAC683",
"q c #ECC984",
"w c #E4C58B",
"e c #E8C78A",
"r c #E6C88D",
"t c #EACA8C",
"y c #F0CB86",
"u c #E1C692",
"i c #E5C993",
"p c #EBCD93",
"a c #E6CD9C",
"s c #EACF9A",
"d c #F0CE90",
"f c #EFD196",
"g c #EDD19D",
"h c #F1D194",
"j c #F1D39C",
"k c #E4CEA3",
"l c #E9CFA1",
"z c #E7D1A5",
"x c #ECD3A4",
"c c #E6D2AA",
"v c #ECD5AA",
"b c #EED8AD",
"n c #F1D6A4",
"m c #F3D8A6",
"M c #F0D7A9",
"N c #F1DAAD",
"B c #EAD6B1",
"V c #EDDAB3",
"C c #EDDDBB",
"Z c #F1DCB3",
"A c #F1DEBB",
"S c #F3E1BD",
"D c #EEDFC1",
"F c #F0DFC1",
"G c #EFE0C1",
"H c #EFE2C9",
"J c #F3E3C4",
"K c #F4E6CB",
"L c #F8E7C8",
"P c #F6E8CE",
"I c #F8EACF",
"U c #F2E7D1",
"Y c #F6EAD3",
"T c #F8ECD4",
"R c #F6EDDB",
"E c #F8EEDC",
"W c #F9F0DF",
"Q c #F6EEE0",
"! c #F8EFE0",
"~ c #F7F0E2",
"^ c #FAF2E3",
"/ c #FBF6EC",
"( c #FCF8EF",
") c #FBF7F0",
"_ c #FDFAF4",
"` c #FEFDFB",
/* pixels */
"sxU/(/^^/)`````//^!EAxcvvlcsq11;--3;3rvvvJRQKCZngvcvbbba2<@@%222",
"xcCT^^^/(__`````_^^EANzzcvvvt11311==>sbZcBJKCvbf0aVAKJJxr<%<<=-9",
"bzcCY^)))_````````_TANcxcxvASd;313-;;tNZcxvCxiqqpzCHKJSMxfr2--:p",
"bzzvL^`))_`_``````)UNbkclvFKYIg3p3==-0xbcxzp,*9xbcvBSSZbbnvg2-9x",
"VMbZW((/()__``````_!ZNvxvATT/^JAbx@++3pgMxfq1txZbbbVbZbzzzZMxqfV",
"bbZU/(//(__```````_/LZcvvZT^(_^Jbbr+*pgxp0<3qjbZSJKPPLJVclVZNxxZ",
"ZbK/((/()_````````__!ZxcvZS/_`)ISLi*sMNAAp33dSLUWWWWWWTKDCANZAZM",
"bvY//((```````````_(^AvvvMN!_)/EKSVgNNK__IeqmIEWW~W~W^WTIKJMvVVV",
"vCQ/(_````````````(//LxvbbZW(/WJbBCNbN/``(fMLW^W^QQR^^^!EYPFZZFV",
"MH^()``````````````((UZvvbZUTYS9CUInZNT``^bSE^W^^Q(//^^^!EUKFZFZ",
"xP/(_````````))``)``)RSZZNNSbg*2STYJZbVJIZNJR!^^^_`_)/(^!^TKHAFA",
"nP/)`````````(__//(`_^JSZNnt,,%3bLLSjxbvbbSJ!^^^)`````_)/!QUKFZZ",
"MP(_`````````_`)`)_)^KERLvt;%%*2tZShq0regNAU^/()````````(~WYHJCv",
"cL__```)````))`_``_(EsVQTV%+9i,113q2<@@@sbS^()``````````)^^WTHVw",
"cI(```_```)(Q)/^))(^b29KRJivVJKAt1<<2@%,vK~)_```````````_/^~YHc6",
"T!_````)_)^WR^)^UUKMe-%vCVU^/U~(^h<<<%%9JR/_````````````((/~YUCB",
"^__```(^(^^LZJ)`/Wn3;;#*8C~)```__Y1=1mSnU^)`````````````_)/WIYII",
"^()_``^KTUKnnJ(``_v3;;%$zR)`````_(q-gWWIY(_`````````````_^^WTWYU",
"^_)_)_Jp9wqtfv^``)Kqqe*wvR)`````_~s-nW^UR_```````````_`)/~^WJYUY",
"!^/(^Tc99:#&*b^``_EjppsxbC``````)Bs=:bCv^`````````_``__)~RUCvLTW",
"~~WRUSu9**OO+xI()(YAZIWEUS)`__)Rcc9@=%9V^_``````___`_`__~YDB8bLR",
"WYJSKDw922OO#pNSLSSAJ^(/^^_)_(Yzk7@@$+iKQ)_````___`_____^UB85tnI",
"CVvvSKg9922229eeqgZvBT/_)((_)RTz#O #5tZ~^/)_``__))___`_)~Gbq2-2b",
"vvcvVGbw92xAJp099pZccVY//^))^^~C%O&kcLJ~^))_`__((/_____(Kaq-:-2g",
"bvvvNNCgpK(`)Ut92pbvccCKU/(^))(Ya#ucBYSI~/)___/WT~)___(Yt2<<<-<p",
"nbbbNNZvb/```K9:20svbvaSCW^(_/^Rt<dSJLVZU~)))~~TJGPKYLb9,%--%+@2",
"gbbbNZNvvP))Rr%=22racxiwbY^(^RSr<<3tNMbvCR^RW~~EJZx00022-%<--++@",
"txbbNNZbbvVzr2<,222,,*pawbWRJG72tgh4ygvvBURURR~WSxt<<2tvp%--<-=+",
"<rvbvvvZSSZhh2,,2,22*9NZUJYYKC*0VKLgptsxvSPUUYWKnp2,@2CIJq4fLKu+",
"<2fbbvvZLPJSf6,,**avp2bJ^^WRA92wJULJNs922sSKKLJg09vnr2ZLSq0S()Y*",
"<<<rggvAPIIJf,,sSSbbb6pI))^Hr2gBJ^(WZv*@<@rgvgt<9SKSb29xf2qJ_`/w",
"$<222pgxSR~C6qbPY^WVbp,v(_(C9zvVU(^RV6oo3qNAs2+,aLTJb2<@@@+,Y/J3",
"@323:2pvGKUK9NJT/)_Tb2@9U)RH9rvcHRYHB%Oo4gWEJq%ivJJSbbZvvr%$*fq2",
"%21<<eS^)/UKaZSE/_)/V-@=uDRYCbCc7CGVa+oo4J/^Kv*zBJnfVbbbvx6+O333",
"@<2rwvR___^V*MAE/)(^N-14tAHSbvvva,s9@3ZSpv^WJx-wJYLxvcvvvz9%+<<<",
"%rgbVK^_)(^aiZ^^W//Tt;4qNcCHKCvxca++@ZW^KqxAn3@eKIYLvvvvvz6$+<<<",
"2gbbJR^//~RBD!(^WPMp2qMJSCW~RRVvcc*o@R((/pte23@*KRTSvvvvvi%@+<<<",
"*vbbFQQ^W^^W^!(/(^xvJUYUW_```)^czk<<0I/(ECvZp3XOaRYV9ulnfq<=<+++",
",bVbCR//((`)_/^))_^^()/R~`````^Ha8<<2SW^UJNZnNcvcJHw+%*032-<1+++",
"aJYYW/((``````)))`)))__(^_````(Hz&<2pbJIFVZZLT^/WASv*+OtZM3<-++*",
"JW/_`___`___``_)_`((()_()````)^TV%-:lZNZZFFKTR(((^YZc%#J^/v#@o%x",
"KR(``))``)___`___)/((`_`__`(^E~!Jiu9lZZLKKFFQQ/)_(EAc5%R))J+@o9C",
"K~_``_)_`___)_^R^^/___``)()!JU^^/^vvsZAYUYKCU^()_`/Al$OiIKw+:5xK",
"W~)``_)_`__))!KZU//_`````)^UVKK)_)AvsvP^^!RY^^^())!a0>3-99+uVTQ^",
"`)_``)((^(_(^EKKK^(``````)RJkxB(`_Jv9VE^)))/)/^)((U8431%-%5K^/)_",
"`__``)(~AADUUKKKJIW)`````_KnwauI^^A99VU!)````_/^/^(HMp3-%:wR(((`",
"`)^^/WKSllVKPPPKLCZ^)````_Kw3qqmZNM3sJUE)_`````_(_/HVbr:::uE(()_",
"`_RUUVw2:rVKKPKKLNZW``)`_)K*1112nSNppJU^)```````_^KvvDx:--wR()``",
"``)~RC2--evJKIKKFfgP____)^V#111<tZNZfCR(`````````HvavCbq::9T)```",
"````/Ig-=-sAKUUIJdtME(/(/Ri=1dq1sZMAvK/``````````Ci7gZb9==2K(_``",
"```_/YAe==3sZJUILAMnZUERKc-=mNMf3nMMNE)`````````(c6*9pr><22bSP~_",
"/)`_WIKs-=<<pCJIILFMMMCcu-=6NNNx>30nA^)````````_Ra7*222>ZLxpxxvK",
"CKW^WIPuOO29xSIUKKFLJZvxap4qvMNq-=%xK(_````````(Jgg02<>5HKCpgMxM",
"gvxSILA9oO3xLUWEUKKPPZcvlnpd9p9=--#xK(_````````(Sggr3<;*CDgesgpt",
"avgvSLx#O*xSITEWYKKILZcvFYZN0--===%xCE(``````_//Kgft333&&&>>200e",
"f776nf4-tvJLUUYWEPKFVxvJPYKMt33:<:9xZSE(__``/!^/~c85q4q>;=-ee$-:",
"p855jnnsMAKKUUKPINggvxbJJJCt0q0**%9fbALTE^^^^E!/)Dcud41===F_/v-:",
"pu57ZLLKJJKTTYFVN029rzxxAVrfLYLv992qxNLPPTE^^ET//UCcjy;==>E__J%-",
"pxnAIRURTT!/)(RZf2<*:txpt3fY/(_^SVf4trbSJI!!!EETRKFM5. ---C)(v:9",
"FFFTREQE^(_`_`^Jgtfpi9pq30SY/_`_WIS442wxJT^!^!ELFZNM%. ---O65>:s",
"ETLE^((^^_`__`/RJSNvvvbft2MLY()^EJZyq,,pFIEE!/!FMZZAl5&--<###:ev",
"KLK/)___``_____/RLSbbnvxg6,uxVKSjfq2<<@wNFPKY!!FVALFZmjy11qpt78C",
"lZK/)`___`_`_``_/^YJbxvzcs2%o%93112<2%9cFYTYPTYKALLFNNmh419ts8zB",
":nR/(__()``````_/^^TVnzvxczr@++1<1<2<,gvFR!TUKFFALAZNNNm44220575"
};
