/* XPM */
static char *result[] = {
/* columns rows colors chars-per-pixel */
"64 64 214 2 ",
"   c #544946",
".  c #564C4A",
"X  c #5D4E4A",
"o  c #594C47",
"O  c #5B504E",
"+  c #5E5553",
"@  c #5D5856",
"#  c #604F49",
"$  c #62524B",
"%  c #6B564C",
"&  c #6E594D",
"*  c #735B4E",
"=  c #785E4F",
"-  c #605353",
";  c #625B56",
":  c #625D5B",
">  c #6D5C56",
",  c #765E51",
"<  c #795F50",
"1  c #7C614F",
"2  c #68605E",
"3  c #7B6151",
"4  c #7A6459",
"5  c #7F695D",
"6  c #76635A",
"7  c #666464",
"8  c #6B6362",
"9  c #6C6B6B",
"0  c #6F6A67",
"q  c #766E6C",
"w  c #796C66",
"e  c #78706E",
"r  c #6C6F70",
"t  c #6E7172",
"y  c #7B7472",
"u  c #76787A",
"i  c #846651",
"p  c #866853",
"a  c #8C6B53",
"s  c #8C6C58",
"d  c #80695C",
"f  c #926E54",
"g  c #906F5B",
"h  c #957157",
"j  c #95725A",
"k  c #9C755C",
"l  c #9C7A5C",
"z  c #8B7058",
"x  c #A0775E",
"c  c #A2795F",
"v  c #826D63",
"b  c #8C7262",
"n  c #847269",
"m  c #947765",
"M  c #9D7761",
"N  c #9C7B64",
"B  c #93796B",
"V  c #9D7E6A",
"C  c #94766A",
"Z  c #8F7677",
"A  c #857C77",
"S  c #937D7A",
"D  c #A57B61",
"F  c #AA7E64",
"G  c #A4815E",
"H  c #99847A",
"J  c #8A817D",
"K  c #AC8266",
"L  c #A2826D",
"P  c #AD836A",
"I  c #A98864",
"U  c #B2876B",
"Y  c #B48B69",
"T  c #B18A67",
"R  c #BA936D",
"E  c #BA946F",
"W  c #A38672",
"Q  c #A98771",
"!  c #A48975",
"~  c #A08A7C",
"^  c #AE8E78",
"/  c #B18B73",
"(  c #AC927A",
")  c #BD9B73",
"_  c #B89379",
"`  c #BEA079",
"'  c #C29C71",
"]  c #C6A373",
"[  c #C9A575",
"{  c #CCAB76",
"}  c #CAA878",
"|  c #D0AE79",
" . c #D3B17B",
".. c #D9B97F",
"X. c #8D7E88",
"o. c #898785",
"O. c #988986",
"+. c #989695",
"@. c #A58E81",
"#. c #AE9483",
"$. c #A3938B",
"%. c #AB9688",
"&. c #B29886",
"*. c #BB9D8A",
"=. c #B79986",
"-. c #AA9B94",
";. c #A59C99",
":. c #ACA19B",
">. c #BAA394",
",. c #BEA99A",
"<. c #B2A29B",
"1. c #9F8FA4",
"2. c #AA97A7",
"3. c #AEA6A1",
"4. c #ABA5A2",
"5. c #B2A6A2",
"6. c #B5A9A3",
"7. c #B3ADAA",
"8. c #BAACA7",
"9. c #BDB3AE",
"0. c #B7B0AB",
"q. c #BBB6B3",
"w. c #BFB9B5",
"e. c #C7A789",
"r. c #D6B583",
"t. c #D7B989",
"y. c #D9BB8C",
"u. c #DAB982",
"i. c #C3AC9E",
"p. c #CAAE9C",
"a. c #C4A595",
"s. c #D6BB97",
"d. c #E1BE83",
"f. c #C6AFA1",
"g. c #C5B2A4",
"h. c #CDB3A3",
"j. c #C2B5AD",
"k. c #CBB8AC",
"l. c #D3BBAD",
"z. c #C1B6B2",
"x. c #C4BBB5",
"c. c #C6BDB9",
"v. c #D5BEB1",
"b. c #DEC194",
"n. c #DDC29A",
"m. c #E3C186",
"M. c #EDCB8C",
"N. c #F0D08F",
"B. c #E0C391",
"V. c #F4D698",
"C. c #DCC5AC",
"Z. c #DEC7A5",
"A. c #CBC1BB",
"S. c #CFC0B4",
"D. c #D3C5BB",
"F. c #D5C8BE",
"G. c #DCCBBE",
"H. c #D5C2B4",
"J. c #E2CAA5",
"K. c #E3CDAD",
"L. c #E8CEA3",
"P. c #E3D0AF",
"I. c #F4DCA9",
"U. c #E1CFBD",
"Y. c #E6D3B4",
"T. c #E8D6B9",
"R. c #F0DBB3",
"E. c #F6E5BC",
"W. c #CBC4C1",
"Q. c #CEC8C4",
"!. c #C6C4C3",
"~. c #D3C9C2",
"^. c #D9CDC4",
"/. c #D2CECC",
"(. c #DCD2CA",
"). c #DAD0C4",
"_. c #DCD6D2",
"`. c #DFD9D4",
"'. c #DEDEDD",
"]. c #E0CFC6",
"[. c #E1D5CC",
"{. c #E8DBC9",
"}. c #E4DAD4",
"|. c #E9DED6",
" X c #E4DFDD",
".X c #EEE2CE",
"XX c #F3E3C4",
"oX c #F3E6CA",
"OX c #EAE3DC",
"+X c #E9E4DD",
"@X c #F1E6D3",
"#X c #F6ECD3",
"$X c #F3ECDD",
"%X c #F1E7DF",
"&X c #F9F1DD",
"*X c #E4E4E4",
"=X c #EBE6E4",
"-X c #EEE9E4",
";X c #EDECEB",
":X c #F3EEE3",
">X c #F1EDEA",
",X c #F6F1E6",
"<X c #F9F3E3",
"1X c #F5F2ED",
"2X c #FAF6EC",
"3X c #FCF8EE",
"4X c #F1EBF0",
"5X c #F4F4F2",
"6X c #F8F7F3",
"7X c #F7F8F6",
"8X c #FBFAF4",
"9X c #F7F8F8",
"0X c #FEFEFE",
"qX c None",
/* pixels */
"qXqXqXqXqXqXqXqXqXqXqXqXqXqXqXqXqXqXqXqXqXqXqXqXqXqXqXqXqXqXqXqXqXqXqXqXqXqXqXqXqXqXqXqXqXqXqXqXqXqXqXqXqXqXqXqXqXqXqXqXqXqXqXqX",
"qXqXqXqXqXqXqXqXqXqXqXqXqXqXqXqXqXqXqXqXqXqXqXqXqXqXqXqXqXqXqXqXqXqXqXqXqXqXqXqXqXqXqXqXqXqXqXqXqXqXqXqXqXqXqXqXqXqXqXqXqXqXqXqX",
"qXqXqXqXqXqXqXqXqXqXqXqXqXqXqXqXqXqXqXqXqXqXqXqXqXqXqX0X0X0X0X0X0XqXqXqXqXqXqXqXqXqXqXqXqXqXqXqXqXqXqXqXqXqXqXqXqXqXqXqXqXqXqXqX",
"qXqXqXqXqXqXqXqXqXqXqXqXqXqXqXqXqXqXqXqXqXqXqXqXqXqX0X0X0X0X0X0X0X0XqXqXqXqXqXqXqXqXqXqXqXqXqXqXqXqXqXqXqXqXqXqXqXqXqXqXqXqXqXqX",
"qXqXqXqXqXqXqXqXqXqXqXqXqXqXqXqXqXqXqXqXqXqXqXqXqX>X0X0X0X0X0X0X0X9XqX0XqXqXqXqXqXqXqXqXqXqXqXqXqXqXqXqXqXqXqXqXqXqXqXqXqXqXqXqX",
"qXqXqXqXqXqXqXqXqXqXqXqXqXqXqXqXqXqXqXqXqXqXqX4X7X8X8X0X0X0X0X0X0X8X0X0X9X8XqXqXqXqXqXqXqXqXqXqXqXqXqXqXqXqXqXqXqXqXqXqXqXqXqXqX",
"qXqXqXqXqXqXqXqXqXqXqXqXqXqXqXqXqXqXqXqXqXqX}.*X8X0X0X0X0X0X0X0X0X0X0X0X0X-Xj.qXqXqXqXqXqXqXqXqXqXqXqXqXqXqXqXqXqXqXqXqXqXqXqXqX",
"qXqXqXqXqXqXqXqXqXqXqXqXqXqXqXqXqXqXqXqXqX>X6X5X;X0X0X0X0X0X0X0X0X0X0X0X1X:X=X}.).qXqXqXqXqXqXqXqXqXqXqXqXqXqXqXqXqXqXqXqXqXqXqX",
"qXqXqXqXqXqXqXqXqXqXqXqXqXqXqXqXqXqXqXqX[.1X0X0X;X;X6X0X0X0X0X0X3X8X6X8X2X1X8X8X6X=X`.qXqXqXqXqXqXqXqXqXqXqXqXqXqXqXqXqXqXqXqXqX",
"qXqXqXqXqXqXqXqXqXqXqXqXqXqXqXqXqXqX0X0X8X8X0X0X9X5X;X*X*X*X6X0X8X0X8X0X6X6X0X8X8X6X[.,.m qXqXqXqXqXqXqXqXqXqXqXqXqXqXqXqXqXqXqX",
"qXqXqXqXqXqXqXqXqXqXqXqXqXqXqXqXqX0X0X0X0X0X0X0X0X0X0X0X9X0X0X0X0X0X0X0X0X6X6X;X1X8X0X1X[.N 3 qXqXqXqXqXqXqXqXqXqXqXqXqXqXqXqXqX",
"qXqXqXqXqXqXqXqXqXqXqXqXqXqXqXqX>X0X0X0X0X;X0X0X9X9X0X0X0X0X0X0X0X0X0X0X0X0X8X*X;X0X0X0X>X#.* 3.qXqXqXqXqXqXqXqXqXqXqXqXqXqXqXqX",
"qXqXqXqXqXqXqXqXqXqXqXqXqXqXqX4X6X0X0X0X*X*X9X0X0X0X0X0X0X0X0X0X0X0X0X0X0X9X5X5X0X0X0X0X$X^ = 3.qXqXqXqXqXqXqXqXqXqXqXqXqXqXqXqX",
"qXqXqXqXqXqXqXqXqXqXqXqXqXqXqX=X0X0X0X*X0X0X0X0X0X0X0X0X0X0X0X0X0X0X0X9X9X4X0X0X0X0X0X8X,XG.m H 5.qXqXqXqXqXqXqXqXqXqXqXqXqXqXqX",
"qXqXqXqXqXqXqXqXqXqXqXqXqXqXqXOX0X0X4X*X0X0X0X0X0X0X0X0X0X0X0X0X0X0X0X0X0X0X0X0X0X0X0X0X6X1XH.g , qXqXqXqXqXqXqXqXqXqXqXqXqXqXqX",
"qXqXqXqXqXqXqXqXqXqXqXqXqXqXX.5X0X0X5X;X0X0X0X0X0X0X0X0X0X0X0X0X0X0X0X0X0X0X0X0X0X0X0X0X0X2XOXL , qXqXqXqXqXqXqXqXqXqXqXqXqXqXqX",
"qXqXqXqXqXqXqXqXqXqXqXqXqXqXX.1X0X8X6X8X0X0X0X0X0X0X0X0X0X0X0X6X8X0X0X9X5X0X9X6X0X0X0X0X0X>X}.>.d 5.qXqXqXqXqXqXqXqXqXqXqXqXqXqX",
"qXqXqXqXqXqXqXqXqXqXqXqXqXO._.9X1X<X2X0X0X0X0X0X0X0X0X0X0X0X0X'.4X0X0X0X9X0X0X;X'.5X0X0X0X|.|.].-.H <.qXqXqXqXqXqXqXqXqXqXqXqXqX",
"qXqXqXqXqXqXqXqXqXqXqXqXS <.0X1X%X,X0X0X8X0X0X0X0X0X0X0X0X0X'.'.0X0X0X0X0X0X0X0X*X;X0X0X0X|.5X|.g.b < 5.qXqXqXqXqXqXqXqXqXqXqXqX",
"qXqXqXqXqXqXqXqXqXqXqXX.v $.9X5X$X8X0X0X0X0X0X0X0X0X0X0X0X0X;X0X0X0X0X0X0X0X0X0X*X*X0X0X0X5X9X6X~.&.g ~ 3.qXqXqXqXqXqXqXqXqXqXqX",
"qXqXqXqXqXqXqXqXqXqXZ * * m [.%X$X2X0X0X0X0X8X0X0X8X8X0X0X8X2X0X0X0X0X0X0X0X0X0X'.9X0X0X5X1X0X8X(.f.F s 3 6.qXqXqXqXqXqXqXqXqXqX",
"qXqXqXqXqXqXqXqXqXqXC s 4 j.7X8X<X<X3X8X8X0X8X8X8X$X0X0X0X0X1X-X0X0X0X0X0X0X0X*X*X0X0X5Xv.h.>X=XD.g.Q k m H qXqXqXqXqXqXqXqXqXqX",
"qXqXqXqXqXqXqXqXqX3 M D b F.0X0X2X3X3X<X2X2X6X,X$X$X0X0X0X0X0X-X0X0X0X0X0X0X6X=XK.U.T.s.U U p.D.k.f.W k F s , qXqXqXqXqXqXqXqXqX",
"qXqXqXqXqXqXqXqXqXB i.i.b ! {.XX#X8X0X8X8X0X8X&XJ.J.6X0X0X0X0X2X3X8X8X3X8X9X5X$XK.r. .) F F F =.i.>.M k F a 4 qXqXqXqXqXqXqXqXqX",
"qXqXqXqXqXqXqXqXS <.^.^.@.s ) t.E.6X8X8X0X0X8X#Xb.Y.:X,X@X8X8X3X<XoXI.I.E.@X$X$XY.K.s.' F F F x W N f k F s < 6.qXqXqXqXqXqXqXqX",
"qXqXqXqXqXqXqXqXB i.^.~.#.M U ] b.#X<X8X8X8X<XT... .y. .r.@X8X2X&XE.V.M.m.B.:X2X:XY.C._ F F F x f f f x F s , Z qXqXqXqXqXqXqXqX",
"qXqXqXqXqXqXqXqXM F ~ ~ D F F Y { J.XX#X#XE.m. . . . . .y.:X6X8X&XI.N.m. .b.,X8X1XU.v.*.U F F k f f f k D s * * 4 qXqXqXqXqXqXqX",
"qXqXqXqXqXqXqXqXj M i i D F F Y } J.oXoXL.u. . . . . . .n.,X8X6XR.m.d... .t.,X6X-Xv.G.G.*.c k h f f f V Q M g i 4 qXqXqXqXqXqXqX",
"qXqXqXqXqXqXqX3 g M i d D F F / [ J.{.{.y.{ { { t.n.y. .t.:X7X:Xy. . . . . .P.{.v.v.|.|.a.k f f f f M &.,.^ D s < 7.qXqXqXqXqXqX",
"qXqXqXqXqXqXqX= , < C f.f._ F F Y e.Z.Z.` I I ) Z.T.Y.r.y.@X:X.Xr. . . . . . .e.U h.[.[.*.j f f f f D ,.g.&.M i w 5.qXqXqXqXqXqX",
"qXqXqXqXqXqXqX% $ > &.].].h.F F F Y } ) l h a G s.K.Z. . .J.T.n. . . . . .| | E F =.h.f.D g f f f f j ! #.M i i < 2.qXqXqXqXqXqX",
"qXqXqXqXqXqXqX% < g *.].].h.F F F K I c j h h l E e.|  . . .r. .| r.b.n.r.[ R Y K K P D f f f f f f f g g i & > , 2.qXqXqXqXqXqX",
"qXqXqXqXqXqXqX$ g F U *.*./ F F F c k f f f f h x T [ |  . . .[ ' e.K.C.s.R F F c x x k f f f f f f f f f = X $ , 2.qXqXqXqXqXqX",
"qXqXqXqXqXqXqX$ g F F F F F F F F c h f f f f f f I [ |  . . .[ Y _ p.p.=.F F x h h h f f f f f f f f f a i % # O 1.qXqXqXqXqXqX",
"qXqXqXqXqXqXqX$ s x F F F F F F c x f f f f f f f c ' ' ' ' ' R K F / _ F F x j i i i a f f f f f f f f f i 1 % X X.qXqXqXqXqXqX",
"qXqXqXqXqXqX: O i k / U F F F c k f f f f f f f f k F K K F K F F F F F F x j i = * * i f f f f f f f f f f a % . 9 qXqXqXqXqXqX",
"qXqXqXqXqXqX> = p f.^.k.D c K c k f f f f f f f f h x c F F F F F F F F F k i i * * * 1 i a f f f f f f f f a = $ : qXqXqXqXqXqX",
"qXqXqXqXqXqX3 a V D.(.^.L h c c h f f f f f f f f f f k F F F F F F F F F j = * * * * * * i f f f f f f f f f i % - qXqXqXqXqXqX",
"qXqXqXqXqX$ 1 h j *.F.i.h h k k f f f f f f f f f f f k c F F F F F F F F g = * * * * * * = i a f f f f f i i = * $ - qXqXqXqXqX",
"qXqXqXqXqXO 1 a h h V j f f f h f f f f f f f f f f f k F F F F F F F F F g = * * * * * * * * i f f f f f i * * & $ - qXqXqXqXqX",
"qXqXqXqXqX$ b L Q l z a f f h a a i i i i i a f f f f h k c F F F F F F x a = * * * * * * * * 1 i a f a i < * * & $ O qXqXqXqXqX",
"qXqXqXqXqXO.x.F.i.>.#.L f f h a = * * * * i a f f f f f f k c F F F F x h i = * * * * * * * * * * i f i * * * * & $ . qXqXqXqXqX",
"qXqXqXqXqX3.~.+X).F.H.g.k a p 1 = * * * = = a f f f f f f k c F F F F x h i = * * * & * * * * * * = i < * * * * * # o qXqXqXqXqX",
"qXqXqXqXqXJ /.}._.(.D.k.N a 1 * * * * * * = a f f f f f f k F F F F F x f i * * * * * * * * & * * * * * * * * * & $ o qXqXqXqXqX",
"qXqXqXqXqX9 7.A.A.D.k.#.a a 1 * * * * * * = i i f f f f f j k k k x k j f p * * * * & * * * * * * * * * * * & % $ ; 7 qXqXqXqXqX",
"qXqXqXqXqXo.7.Q.(.-X}.( h a = = * * * * * * * = a f f f f f h f f f f f f i = * * * * * * * * * * * * * * * * X X 7 qXqXqXqXqXqX",
"qXqXqXqXqX+.q./.;X0X1XA.@.m b 4 * * * & * * * i a f f f f f f f f f f f f i = * * * * * * * * * * * * * * * , - . 7 qXqXqXqXqXqX",
"qXqXqXqXqXu o.4.}.9X1X}.x.A.9.O.i * * * * * * = a f f f f f f f f f f f f i = * * * * * * * * * * * * * * , 3 $ . 7 qXqXqXqXqXqX",
"qXqXqXqXqXqXt 9 $.`.-X1X+X X XW.$.5 * * * * * 1 a f f f f f f f f f f f f i = * * * * * & 3 w 4 * * * * * 6 $ : 7 qXqXqXqXqXqXqX",
"qXqXqXqXqXqXqXu 7 7.=X>X*X_._.(.x.H * * * * * 1 a f f f f f f f f f f f f i * * * * * = v $.,.-.O.H H H H % . 7 qXqXqXqXqXqXqXqX",
"qXqXqXqXqXqXqXqX9 o.A.w.q.0.q.W.Q.9.v * * * * = i i a f f f f f f f h a i 1 = = 4 d n S -.z.c.c.x.7.3.O.- ; qXqXqXqXqXqXqXqXqXqX",
"qXqXqXqXqXqXqXqXqXu y 8 O y ;.7.9.6.-.5 * * & * * 1 a N f f f f f N h i * * 4 n $.-.5.z.x.c.c.c.$.6 + . . qXqXqXqXqXqXqXqXqXqXqX",
"qXqXqXqXqXqXqXqXqXqX9 7 7 : q +.:.:.;.w # X $ % & 1 L ^.S.i.=.( >.>.Q p v -.z.c.c.c.c.x.6.0.:.n $ o   + qXqXqXqXqXqXqXqXqXqXqXqX",
"qXqXqXqXqXqXqXqXqXqXqXqXqXr @ ; u O.e +       X % 1 H OX6X1X[.~.(.F.h.H j.c.c.c.c.c.x.n O : ;   . qXqXqXqXqXqXqXqXqXqXqXqXqXqXqX",
"qXqXqXqXqXqXqXqXqXqXqXqXqXqXqX7 7 9 9 : qXqX  o X 6 :.`.=X1X9X9X,X(.f.,.A.x.w.w.q.3.w #   qXqXqXqXqXqXqXqXqXqXqXqXqXqXqXqXqXqXqX",
"qXqXqXqXqXqXqXqXqXqXqXqXqXqXqXqXqXqXqXqXqXqXqXqX. e /.1X1X9X0X0X9X_.F.A.Q.q.4.A 8 +   o qXqXqXqXqXqXqXqXqXqXqXqXqXqXqXqXqXqXqXqX",
"qXqXqXqXqXqXqXqXqXqXqXqXqXqXqXqXqXqXqXqXqXqXqXqX7 9 q.*X;X>X9X9X_.9.j.q.;.w O @ 7 7 qXqXqXqXqXqXqXqXqXqXqXqXqXqXqXqXqXqXqXqXqXqX",
"qXqXqXqXqXqXqXqXqXqXqXqXqXqXqXqXqXqXqXqXqXqXqXqXqXqXqX'.!.!.!.;.A y e o.2 . qXqXqXqXqXqXqXqXqXqXqXqXqXqXqXqXqXqXqXqXqXqXqXqXqXqX",
"qXqXqXqXqXqXqXqXqXqXqXqXqXqXqXqXqXqXqXqXqXqXqXqXqXqXqXqXqXqXqXqXqXqXqXqXqXqXqXqXqXqXqXqXqXqXqXqXqXqXqXqXqXqXqXqXqXqXqXqXqXqXqXqX",
"qXqXqXqXqXqXqXqXqXqXqXqXqXqXqXqXqXqXqXqXqXqXqXqXqXqXqXqXqXqXqXqXqXqXqXqXqXqXqXqXqXqXqXqXqXqXqXqXqXqXqXqXqXqXqXqXqXqXqXqXqXqXqXqX",
"qXqXqXqXqXqXqXqXqXqXqXqXqXqXqXqXqXqXqXqXqXqXqXqXqXqXqXqXqXqXqXqXqXqXqXqXqXqXqXqXqXqXqXqXqXqXqXqXqXqXqXqXqXqXqXqXqXqXqXqXqXqXqXqX",
"qXqXqXqXqXqXqXqXqXqXqXqXqXqXqXqXqXqXqXqXqXqXqXqXqXqXqXqXqXqXqXqXqXqXqXqXqXqXqXqXqXqXqXqXqXqXqXqXqXqXqXqXqXqXqXqXqXqXqXqXqXqXqXqX",
"qXqXqXqXqXqXqXqXqXqXqXqXqXqXqXqXqXqXqXqXqXqXqXqXqXqXqXqXqXqXqXqXqXqXqXqXqXqXqXqXqXqXqXqXqXqXqXqXqXqXqXqXqXqXqXqXqXqXqXqXqXqXqXqX",
"qXqXqXqXqXqXqXqXqXqXqXqXqXqXqXqXqXqXqXqXqXqXqXqXqXqXqXqXqXqXqXqXqXqXqXqXqXqXqXqXqXqXqXqXqXqXqXqXqXqXqXqXqXqXqXqXqXqXqXqXqXqXqXqX"
};
